<mxfile host="app.diagrams.net" modified="2024-03-27T02:37:42.718Z" agent="Mozilla/5.0 (Windows NT 10.0; Win64; x64) AppleWebKit/537.36 (KHTML, like Gecko) Chrome/123.0.0.0 Safari/537.36" etag="0LCoOD3n4EIBQoo2wXxE" version="24.1.0" type="device">
  <diagram name="Page-1" id="4bOI3GPnyJpzu8kPZX6G">
    <mxGraphModel dx="1050" dy="565" grid="0" gridSize="10" guides="1" tooltips="1" connect="1" arrows="1" fold="1" page="1" pageScale="1" pageWidth="1100" pageHeight="850" background="#FFFFFF" math="0" shadow="0">
      <root>
        <mxCell id="0" />
        <mxCell id="1" parent="0" />
        <mxCell id="kzmPSS7y724H0x-85dQ2-7" value="" style="edgeStyle=orthogonalEdgeStyle;rounded=0;orthogonalLoop=1;jettySize=auto;html=1;" parent="1" source="kzmPSS7y724H0x-85dQ2-1" target="kzmPSS7y724H0x-85dQ2-4" edge="1">
          <mxGeometry relative="1" as="geometry" />
        </mxCell>
        <mxCell id="kzmPSS7y724H0x-85dQ2-1" value="&lt;b&gt;Start&lt;/b&gt;" style="ellipse;whiteSpace=wrap;html=1;fillColor=#fff2cc;strokeColor=#d6b656;" parent="1" vertex="1">
          <mxGeometry x="420" y="30" width="90" height="50" as="geometry" />
        </mxCell>
        <mxCell id="kzmPSS7y724H0x-85dQ2-9" style="edgeStyle=orthogonalEdgeStyle;rounded=0;orthogonalLoop=1;jettySize=auto;html=1;exitX=0.5;exitY=1;exitDx=0;exitDy=0;" parent="1" source="kzmPSS7y724H0x-85dQ2-4" edge="1">
          <mxGeometry relative="1" as="geometry">
            <mxPoint x="465" y="180" as="targetPoint" />
          </mxGeometry>
        </mxCell>
        <mxCell id="kzmPSS7y724H0x-85dQ2-4" value="&lt;b&gt;Login&lt;/b&gt;" style="rounded=0;whiteSpace=wrap;html=1;fillColor=#d5e8d4;strokeColor=#82b366;" parent="1" vertex="1">
          <mxGeometry x="405" y="110" width="120" height="40" as="geometry" />
        </mxCell>
        <mxCell id="kzmPSS7y724H0x-85dQ2-8" value="" style="endArrow=none;html=1;rounded=0;" parent="1" edge="1">
          <mxGeometry width="50" height="50" relative="1" as="geometry">
            <mxPoint x="190" y="180" as="sourcePoint" />
            <mxPoint x="800" y="180" as="targetPoint" />
          </mxGeometry>
        </mxCell>
        <mxCell id="kzmPSS7y724H0x-85dQ2-15" style="edgeStyle=orthogonalEdgeStyle;rounded=0;orthogonalLoop=1;jettySize=auto;html=1;entryX=0.5;entryY=0;entryDx=0;entryDy=0;" parent="1" source="kzmPSS7y724H0x-85dQ2-10" target="kzmPSS7y724H0x-85dQ2-14" edge="1">
          <mxGeometry relative="1" as="geometry" />
        </mxCell>
        <mxCell id="kzmPSS7y724H0x-85dQ2-10" value="&lt;b&gt;Participate&lt;/b&gt;" style="rounded=0;whiteSpace=wrap;html=1;fillColor=#d5e8d4;strokeColor=#82b366;" parent="1" vertex="1">
          <mxGeometry x="130" y="200" width="120" height="40" as="geometry" />
        </mxCell>
        <mxCell id="kzmPSS7y724H0x-85dQ2-67" style="edgeStyle=orthogonalEdgeStyle;rounded=0;orthogonalLoop=1;jettySize=auto;html=1;exitX=0.5;exitY=1;exitDx=0;exitDy=0;" parent="1" source="kzmPSS7y724H0x-85dQ2-11" edge="1">
          <mxGeometry relative="1" as="geometry">
            <mxPoint x="790" y="260" as="targetPoint" />
          </mxGeometry>
        </mxCell>
        <mxCell id="kzmPSS7y724H0x-85dQ2-11" value="&lt;b&gt;Host&lt;/b&gt;" style="rounded=0;whiteSpace=wrap;html=1;fillColor=#d5e8d4;strokeColor=#82b366;" parent="1" vertex="1">
          <mxGeometry x="730" y="200" width="120" height="40" as="geometry" />
        </mxCell>
        <mxCell id="kzmPSS7y724H0x-85dQ2-12" value="" style="endArrow=classic;html=1;rounded=0;" parent="1" edge="1">
          <mxGeometry width="50" height="50" relative="1" as="geometry">
            <mxPoint x="190" y="180" as="sourcePoint" />
            <mxPoint x="190" y="200" as="targetPoint" />
          </mxGeometry>
        </mxCell>
        <mxCell id="kzmPSS7y724H0x-85dQ2-13" value="" style="endArrow=classic;html=1;rounded=0;" parent="1" edge="1">
          <mxGeometry width="50" height="50" relative="1" as="geometry">
            <mxPoint x="800" y="180" as="sourcePoint" />
            <mxPoint x="800" y="200" as="targetPoint" />
          </mxGeometry>
        </mxCell>
        <mxCell id="kzmPSS7y724H0x-85dQ2-19" style="edgeStyle=orthogonalEdgeStyle;rounded=0;orthogonalLoop=1;jettySize=auto;html=1;entryX=0.5;entryY=0;entryDx=0;entryDy=0;" parent="1" source="kzmPSS7y724H0x-85dQ2-14" target="kzmPSS7y724H0x-85dQ2-16" edge="1">
          <mxGeometry relative="1" as="geometry" />
        </mxCell>
        <mxCell id="k8kWBdQIVT9HjxaWmpgL-8" style="edgeStyle=orthogonalEdgeStyle;rounded=0;orthogonalLoop=1;jettySize=auto;html=1;entryX=0.5;entryY=1;entryDx=0;entryDy=0;" parent="1" source="kzmPSS7y724H0x-85dQ2-14" target="kzmPSS7y724H0x-85dQ2-98" edge="1">
          <mxGeometry relative="1" as="geometry">
            <Array as="points">
              <mxPoint x="550" y="320" />
              <mxPoint x="550" y="838" />
              <mxPoint x="825" y="838" />
            </Array>
          </mxGeometry>
        </mxCell>
        <mxCell id="kzmPSS7y724H0x-85dQ2-14" value="&lt;b&gt;Available&amp;nbsp;&lt;/b&gt;&lt;div&gt;&lt;b&gt;contest?&lt;/b&gt;&lt;/div&gt;" style="rhombus;whiteSpace=wrap;html=1;fillColor=#76608a;strokeColor=#432D57;fontColor=#ffffff;" parent="1" vertex="1">
          <mxGeometry x="145" y="280" width="90" height="80" as="geometry" />
        </mxCell>
        <mxCell id="k8kWBdQIVT9HjxaWmpgL-2" style="edgeStyle=orthogonalEdgeStyle;rounded=0;orthogonalLoop=1;jettySize=auto;html=1;exitX=0.5;exitY=1;exitDx=0;exitDy=0;entryX=0.5;entryY=0;entryDx=0;entryDy=0;" parent="1" source="kzmPSS7y724H0x-85dQ2-16" target="k8kWBdQIVT9HjxaWmpgL-1" edge="1">
          <mxGeometry relative="1" as="geometry" />
        </mxCell>
        <mxCell id="kzmPSS7y724H0x-85dQ2-16" value="&lt;b&gt;Show contest details&lt;/b&gt;" style="rounded=0;whiteSpace=wrap;html=1;fillColor=#d5e8d4;strokeColor=#82b366;" parent="1" vertex="1">
          <mxGeometry x="140" y="400" width="100" height="40" as="geometry" />
        </mxCell>
        <mxCell id="kzmPSS7y724H0x-85dQ2-20" value="&lt;b&gt;YES&lt;/b&gt;" style="text;html=1;align=center;verticalAlign=middle;whiteSpace=wrap;rounded=0;" parent="1" vertex="1">
          <mxGeometry x="145" y="360" width="60" height="30" as="geometry" />
        </mxCell>
        <mxCell id="kzmPSS7y724H0x-85dQ2-29" style="edgeStyle=orthogonalEdgeStyle;rounded=0;orthogonalLoop=1;jettySize=auto;html=1;entryX=0;entryY=0.5;entryDx=0;entryDy=0;" parent="1" source="kzmPSS7y724H0x-85dQ2-26" target="kzmPSS7y724H0x-85dQ2-28" edge="1">
          <mxGeometry relative="1" as="geometry" />
        </mxCell>
        <mxCell id="kzmPSS7y724H0x-85dQ2-32" style="edgeStyle=orthogonalEdgeStyle;rounded=0;orthogonalLoop=1;jettySize=auto;html=1;exitX=0.5;exitY=1;exitDx=0;exitDy=0;entryX=0.5;entryY=0;entryDx=0;entryDy=0;" parent="1" source="kzmPSS7y724H0x-85dQ2-26" target="kzmPSS7y724H0x-85dQ2-31" edge="1">
          <mxGeometry relative="1" as="geometry" />
        </mxCell>
        <mxCell id="kzmPSS7y724H0x-85dQ2-26" value="&lt;b&gt;Both&amp;nbsp;&lt;/b&gt;&lt;div&gt;&lt;b&gt;individual &amp;amp; team?&lt;/b&gt;&lt;/div&gt;" style="rhombus;whiteSpace=wrap;html=1;fillColor=#76608a;strokeColor=#432D57;fontColor=#ffffff;" parent="1" vertex="1">
          <mxGeometry x="300" y="380" width="90" height="80" as="geometry" />
        </mxCell>
        <mxCell id="lNBYCz2GFePEUyN5MFj3-13" style="edgeStyle=orthogonalEdgeStyle;rounded=0;orthogonalLoop=1;jettySize=auto;html=1;entryX=0.5;entryY=1;entryDx=0;entryDy=0;" parent="1" source="kzmPSS7y724H0x-85dQ2-28" target="kzmPSS7y724H0x-85dQ2-48" edge="1">
          <mxGeometry relative="1" as="geometry">
            <Array as="points">
              <mxPoint x="480" y="676" />
              <mxPoint x="193" y="676" />
            </Array>
          </mxGeometry>
        </mxCell>
        <mxCell id="kzmPSS7y724H0x-85dQ2-28" value="&lt;b&gt;Register&lt;/b&gt;" style="shape=parallelogram;perimeter=parallelogramPerimeter;whiteSpace=wrap;html=1;fixedSize=1;fillColor=#dae8fc;strokeColor=#6c8ebf;" parent="1" vertex="1">
          <mxGeometry x="420" y="400" width="120" height="40" as="geometry" />
        </mxCell>
        <mxCell id="kzmPSS7y724H0x-85dQ2-30" value="&lt;b&gt;YES&lt;/b&gt;" style="text;html=1;align=center;verticalAlign=middle;whiteSpace=wrap;rounded=0;" parent="1" vertex="1">
          <mxGeometry x="370" y="390" width="60" height="30" as="geometry" />
        </mxCell>
        <mxCell id="kzmPSS7y724H0x-85dQ2-35" style="edgeStyle=orthogonalEdgeStyle;rounded=0;orthogonalLoop=1;jettySize=auto;html=1;exitX=0.5;exitY=1;exitDx=0;exitDy=0;entryX=0.5;entryY=0;entryDx=0;entryDy=0;" parent="1" source="kzmPSS7y724H0x-85dQ2-31" target="kzmPSS7y724H0x-85dQ2-34" edge="1">
          <mxGeometry relative="1" as="geometry" />
        </mxCell>
        <mxCell id="kzmPSS7y724H0x-85dQ2-38" style="edgeStyle=orthogonalEdgeStyle;rounded=0;orthogonalLoop=1;jettySize=auto;html=1;entryX=1;entryY=0.5;entryDx=0;entryDy=0;" parent="1" source="kzmPSS7y724H0x-85dQ2-31" target="kzmPSS7y724H0x-85dQ2-37" edge="1">
          <mxGeometry relative="1" as="geometry" />
        </mxCell>
        <mxCell id="kzmPSS7y724H0x-85dQ2-31" value="&lt;b style=&quot;background-color: initial;&quot;&gt;Individual&lt;/b&gt;&lt;div&gt;&lt;b style=&quot;background-color: initial;&quot;&gt;?&lt;/b&gt;&lt;/div&gt;" style="rhombus;whiteSpace=wrap;html=1;fillColor=#76608a;strokeColor=#432D57;fontColor=#ffffff;" parent="1" vertex="1">
          <mxGeometry x="300" y="500" width="90" height="80" as="geometry" />
        </mxCell>
        <mxCell id="kzmPSS7y724H0x-85dQ2-33" value="&lt;b&gt;NO&lt;/b&gt;" style="text;html=1;align=center;verticalAlign=middle;whiteSpace=wrap;rounded=0;" parent="1" vertex="1">
          <mxGeometry x="300" y="460" width="60" height="30" as="geometry" />
        </mxCell>
        <mxCell id="kzmPSS7y724H0x-85dQ2-51" style="edgeStyle=orthogonalEdgeStyle;rounded=0;orthogonalLoop=1;jettySize=auto;html=1;entryX=1;entryY=0.5;entryDx=0;entryDy=0;" parent="1" source="kzmPSS7y724H0x-85dQ2-34" target="kzmPSS7y724H0x-85dQ2-48" edge="1">
          <mxGeometry relative="1" as="geometry" />
        </mxCell>
        <mxCell id="kzmPSS7y724H0x-85dQ2-34" value="&lt;b&gt;Individual Registration&lt;/b&gt;" style="shape=parallelogram;perimeter=parallelogramPerimeter;whiteSpace=wrap;html=1;fixedSize=1;fillColor=#dae8fc;strokeColor=#6c8ebf;" parent="1" vertex="1">
          <mxGeometry x="285" y="628" width="120" height="40" as="geometry" />
        </mxCell>
        <mxCell id="kzmPSS7y724H0x-85dQ2-36" value="&lt;b&gt;YES&lt;/b&gt;" style="text;html=1;align=center;verticalAlign=middle;whiteSpace=wrap;rounded=0;" parent="1" vertex="1">
          <mxGeometry x="290" y="570" width="60" height="30" as="geometry" />
        </mxCell>
        <mxCell id="kzmPSS7y724H0x-85dQ2-49" style="edgeStyle=orthogonalEdgeStyle;rounded=0;orthogonalLoop=1;jettySize=auto;html=1;exitX=0.5;exitY=1;exitDx=0;exitDy=0;entryX=0.5;entryY=0;entryDx=0;entryDy=0;" parent="1" source="kzmPSS7y724H0x-85dQ2-37" target="kzmPSS7y724H0x-85dQ2-48" edge="1">
          <mxGeometry relative="1" as="geometry" />
        </mxCell>
        <mxCell id="kzmPSS7y724H0x-85dQ2-37" value="&lt;b&gt;Team&lt;/b&gt;&lt;div&gt;&lt;b&gt;&amp;nbsp;Registration&lt;/b&gt;&lt;/div&gt;" style="shape=parallelogram;perimeter=parallelogramPerimeter;whiteSpace=wrap;html=1;fixedSize=1;fillColor=#dae8fc;strokeColor=#6c8ebf;" parent="1" vertex="1">
          <mxGeometry x="133" y="520" width="120" height="40" as="geometry" />
        </mxCell>
        <mxCell id="kzmPSS7y724H0x-85dQ2-39" value="&lt;b&gt;NO&lt;/b&gt;" style="text;html=1;align=center;verticalAlign=middle;whiteSpace=wrap;rounded=0;" parent="1" vertex="1">
          <mxGeometry x="250" y="510" width="60" height="30" as="geometry" />
        </mxCell>
        <mxCell id="kzmPSS7y724H0x-85dQ2-48" value="" style="ellipse;whiteSpace=wrap;html=1;aspect=fixed;fillColor=#f8cecc;strokeColor=#b85450;" parent="1" vertex="1">
          <mxGeometry x="185" y="640" width="16" height="16" as="geometry" />
        </mxCell>
        <mxCell id="kzmPSS7y724H0x-85dQ2-52" value="&lt;b&gt;NO&lt;/b&gt;" style="text;html=1;align=center;verticalAlign=middle;whiteSpace=wrap;rounded=0;" parent="1" vertex="1">
          <mxGeometry x="264" y="294" width="60" height="30" as="geometry" />
        </mxCell>
        <mxCell id="saFpCEw48rZVz8mpHkZx-3" style="edgeStyle=orthogonalEdgeStyle;rounded=0;orthogonalLoop=1;jettySize=auto;html=1;entryX=0;entryY=0.5;entryDx=0;entryDy=0;" edge="1" parent="1" source="kzmPSS7y724H0x-85dQ2-60" target="saFpCEw48rZVz8mpHkZx-2">
          <mxGeometry relative="1" as="geometry">
            <Array as="points">
              <mxPoint x="559" y="335" />
              <mxPoint x="559" y="602" />
            </Array>
          </mxGeometry>
        </mxCell>
        <mxCell id="saFpCEw48rZVz8mpHkZx-4" value="&lt;b&gt;NO&lt;/b&gt;" style="edgeLabel;html=1;align=center;verticalAlign=middle;resizable=0;points=[];" vertex="1" connectable="0" parent="saFpCEw48rZVz8mpHkZx-3">
          <mxGeometry x="0.6615" relative="1" as="geometry">
            <mxPoint as="offset" />
          </mxGeometry>
        </mxCell>
        <mxCell id="kzmPSS7y724H0x-85dQ2-60" value="&lt;b&gt;Launch&lt;/b&gt;&lt;div&gt;&lt;b&gt;?&lt;/b&gt;&lt;/div&gt;" style="rhombus;whiteSpace=wrap;html=1;fillColor=#76608a;strokeColor=#432D57;fontColor=#ffffff;" parent="1" vertex="1">
          <mxGeometry x="580" y="300" width="100" height="70" as="geometry" />
        </mxCell>
        <mxCell id="kzmPSS7y724H0x-85dQ2-61" value="" style="endArrow=none;html=1;rounded=0;" parent="1" edge="1">
          <mxGeometry width="50" height="50" relative="1" as="geometry">
            <mxPoint x="630" y="260" as="sourcePoint" />
            <mxPoint x="950" y="260" as="targetPoint" />
            <Array as="points">
              <mxPoint x="770" y="260" />
            </Array>
          </mxGeometry>
        </mxCell>
        <mxCell id="kzmPSS7y724H0x-85dQ2-66" style="edgeStyle=orthogonalEdgeStyle;rounded=0;orthogonalLoop=1;jettySize=auto;html=1;entryX=0.5;entryY=0;entryDx=0;entryDy=0;" parent="1" edge="1">
          <mxGeometry relative="1" as="geometry">
            <mxPoint x="630" y="260" as="sourcePoint" />
            <mxPoint x="630" y="300" as="targetPoint" />
            <Array as="points">
              <mxPoint x="630" y="281" />
              <mxPoint x="631" y="281" />
              <mxPoint x="631" y="280" />
              <mxPoint x="630" y="280" />
            </Array>
          </mxGeometry>
        </mxCell>
        <mxCell id="kzmPSS7y724H0x-85dQ2-103" style="edgeStyle=orthogonalEdgeStyle;rounded=0;orthogonalLoop=1;jettySize=auto;html=1;exitX=0;exitY=0.5;exitDx=0;exitDy=0;entryX=1;entryY=0.25;entryDx=0;entryDy=0;" parent="1" source="kzmPSS7y724H0x-85dQ2-68" target="kzmPSS7y724H0x-85dQ2-10" edge="1">
          <mxGeometry relative="1" as="geometry">
            <Array as="points">
              <mxPoint x="570" y="425" />
              <mxPoint x="570" y="370" />
              <mxPoint x="420" y="370" />
              <mxPoint x="420" y="210" />
            </Array>
          </mxGeometry>
        </mxCell>
        <mxCell id="kzmPSS7y724H0x-85dQ2-68" value="&lt;b&gt;Launch&amp;nbsp;&lt;/b&gt;&lt;div&gt;&lt;b&gt;Contest&lt;/b&gt;&lt;/div&gt;" style="rounded=0;whiteSpace=wrap;html=1;fillColor=#d5e8d4;strokeColor=#82b366;align=center;" parent="1" vertex="1">
          <mxGeometry x="590" y="405" width="100" height="40" as="geometry" />
        </mxCell>
        <mxCell id="kzmPSS7y724H0x-85dQ2-69" style="edgeStyle=orthogonalEdgeStyle;rounded=0;orthogonalLoop=1;jettySize=auto;html=1;exitX=0.5;exitY=1;exitDx=0;exitDy=0;entryX=0.408;entryY=0.055;entryDx=0;entryDy=0;entryPerimeter=0;" parent="1" source="kzmPSS7y724H0x-85dQ2-60" target="kzmPSS7y724H0x-85dQ2-68" edge="1">
          <mxGeometry relative="1" as="geometry" />
        </mxCell>
        <mxCell id="kzmPSS7y724H0x-85dQ2-70" value="&lt;b&gt;YES&lt;/b&gt;" style="text;html=1;align=center;verticalAlign=middle;whiteSpace=wrap;rounded=0;" parent="1" vertex="1">
          <mxGeometry x="620" y="370" width="60" height="30" as="geometry" />
        </mxCell>
        <mxCell id="kzmPSS7y724H0x-85dQ2-81" style="edgeStyle=orthogonalEdgeStyle;rounded=0;orthogonalLoop=1;jettySize=auto;html=1;entryX=0.5;entryY=0;entryDx=0;entryDy=0;" parent="1" source="kzmPSS7y724H0x-85dQ2-75" target="kzmPSS7y724H0x-85dQ2-80" edge="1">
          <mxGeometry relative="1" as="geometry" />
        </mxCell>
        <mxCell id="saFpCEw48rZVz8mpHkZx-5" style="edgeStyle=orthogonalEdgeStyle;rounded=0;orthogonalLoop=1;jettySize=auto;html=1;entryX=1;entryY=0.5;entryDx=0;entryDy=0;" edge="1" parent="1" source="kzmPSS7y724H0x-85dQ2-75" target="saFpCEw48rZVz8mpHkZx-2">
          <mxGeometry relative="1" as="geometry">
            <Array as="points">
              <mxPoint x="807" y="335" />
              <mxPoint x="807" y="602" />
            </Array>
          </mxGeometry>
        </mxCell>
        <mxCell id="saFpCEw48rZVz8mpHkZx-6" value="&lt;b&gt;NO&lt;/b&gt;" style="edgeLabel;html=1;align=center;verticalAlign=middle;resizable=0;points=[];" vertex="1" connectable="0" parent="saFpCEw48rZVz8mpHkZx-5">
          <mxGeometry x="-0.8297" y="-2" relative="1" as="geometry">
            <mxPoint x="-1" y="-2" as="offset" />
          </mxGeometry>
        </mxCell>
        <mxCell id="kzmPSS7y724H0x-85dQ2-75" value="&lt;b&gt;Create&amp;nbsp;&lt;/b&gt;&lt;div&gt;&lt;b&gt;new Contest&lt;/b&gt;&lt;div&gt;&lt;b&gt;?&lt;/b&gt;&lt;/div&gt;&lt;/div&gt;" style="rhombus;whiteSpace=wrap;html=1;fillColor=#76608a;strokeColor=#432D57;fontColor=#ffffff;" parent="1" vertex="1">
          <mxGeometry x="895" y="300" width="100" height="70" as="geometry" />
        </mxCell>
        <mxCell id="kzmPSS7y724H0x-85dQ2-76" style="edgeStyle=orthogonalEdgeStyle;rounded=0;orthogonalLoop=1;jettySize=auto;html=1;entryX=0.5;entryY=0;entryDx=0;entryDy=0;" parent="1" edge="1">
          <mxGeometry relative="1" as="geometry">
            <mxPoint x="944.5" y="260" as="sourcePoint" />
            <mxPoint x="944.5" y="300" as="targetPoint" />
            <Array as="points">
              <mxPoint x="944.5" y="281" />
              <mxPoint x="945.5" y="281" />
              <mxPoint x="945.5" y="280" />
              <mxPoint x="944.5" y="280" />
            </Array>
          </mxGeometry>
        </mxCell>
        <mxCell id="kzmPSS7y724H0x-85dQ2-89" style="edgeStyle=orthogonalEdgeStyle;rounded=0;orthogonalLoop=1;jettySize=auto;html=1;exitX=0;exitY=0.5;exitDx=0;exitDy=0;entryX=0;entryY=0.5;entryDx=0;entryDy=0;" parent="1" source="kzmPSS7y724H0x-85dQ2-80" target="kzmPSS7y724H0x-85dQ2-86" edge="1">
          <mxGeometry relative="1" as="geometry">
            <Array as="points">
              <mxPoint x="840" y="440" />
              <mxPoint x="840" y="590" />
            </Array>
          </mxGeometry>
        </mxCell>
        <mxCell id="kzmPSS7y724H0x-85dQ2-80" value="&lt;b&gt;Set Custom Problem?&lt;/b&gt;" style="rhombus;whiteSpace=wrap;html=1;fillColor=#76608a;strokeColor=#432D57;fontColor=#ffffff;" parent="1" vertex="1">
          <mxGeometry x="890" y="405" width="110" height="70" as="geometry" />
        </mxCell>
        <mxCell id="kzmPSS7y724H0x-85dQ2-87" style="edgeStyle=orthogonalEdgeStyle;rounded=0;orthogonalLoop=1;jettySize=auto;html=1;entryX=0.5;entryY=0;entryDx=0;entryDy=0;" parent="1" source="kzmPSS7y724H0x-85dQ2-82" target="kzmPSS7y724H0x-85dQ2-86" edge="1">
          <mxGeometry relative="1" as="geometry" />
        </mxCell>
        <mxCell id="kzmPSS7y724H0x-85dQ2-82" value="&lt;b&gt;Problem setting&lt;/b&gt;" style="rounded=0;whiteSpace=wrap;html=1;fillColor=#d5e8d4;strokeColor=#82b366;align=center;" parent="1" vertex="1">
          <mxGeometry x="900" y="500" width="100" height="40" as="geometry" />
        </mxCell>
        <mxCell id="kzmPSS7y724H0x-85dQ2-85" style="edgeStyle=orthogonalEdgeStyle;rounded=0;orthogonalLoop=1;jettySize=auto;html=1;exitX=0.5;exitY=1;exitDx=0;exitDy=0;entryX=0.436;entryY=0.005;entryDx=0;entryDy=0;entryPerimeter=0;" parent="1" source="kzmPSS7y724H0x-85dQ2-80" target="kzmPSS7y724H0x-85dQ2-82" edge="1">
          <mxGeometry relative="1" as="geometry" />
        </mxCell>
        <mxCell id="kzmPSS7y724H0x-85dQ2-93" style="edgeStyle=orthogonalEdgeStyle;rounded=0;orthogonalLoop=1;jettySize=auto;html=1;entryX=0.5;entryY=0;entryDx=0;entryDy=0;" parent="1" source="kzmPSS7y724H0x-85dQ2-86" target="kzmPSS7y724H0x-85dQ2-92" edge="1">
          <mxGeometry relative="1" as="geometry" />
        </mxCell>
        <mxCell id="kzmPSS7y724H0x-85dQ2-86" value="&lt;b&gt;Contest details submission&lt;/b&gt;" style="rounded=0;whiteSpace=wrap;html=1;fillColor=#d5e8d4;strokeColor=#82b366;align=center;" parent="1" vertex="1">
          <mxGeometry x="900" y="570" width="100" height="40" as="geometry" />
        </mxCell>
        <mxCell id="kzmPSS7y724H0x-85dQ2-90" value="&lt;b&gt;YES&lt;/b&gt;" style="text;html=1;align=center;verticalAlign=middle;whiteSpace=wrap;rounded=0;" parent="1" vertex="1">
          <mxGeometry x="935" y="470" width="60" height="30" as="geometry" />
        </mxCell>
        <mxCell id="kzmPSS7y724H0x-85dQ2-91" value="&lt;b&gt;NO&lt;/b&gt;" style="text;html=1;align=center;verticalAlign=middle;whiteSpace=wrap;rounded=0;" parent="1" vertex="1">
          <mxGeometry x="824" y="480" width="60" height="30" as="geometry" />
        </mxCell>
        <mxCell id="kzmPSS7y724H0x-85dQ2-94" style="edgeStyle=orthogonalEdgeStyle;rounded=0;orthogonalLoop=1;jettySize=auto;html=1;exitX=0;exitY=0.5;exitDx=0;exitDy=0;entryX=1;entryY=0.5;entryDx=0;entryDy=0;" parent="1" source="kzmPSS7y724H0x-85dQ2-92" target="kzmPSS7y724H0x-85dQ2-60" edge="1">
          <mxGeometry relative="1" as="geometry" />
        </mxCell>
        <mxCell id="kzmPSS7y724H0x-85dQ2-97" style="edgeStyle=orthogonalEdgeStyle;rounded=0;orthogonalLoop=1;jettySize=auto;html=1;exitX=0.5;exitY=1;exitDx=0;exitDy=0;entryX=0.5;entryY=0;entryDx=0;entryDy=0;" parent="1" source="kzmPSS7y724H0x-85dQ2-92" target="kzmPSS7y724H0x-85dQ2-96" edge="1">
          <mxGeometry relative="1" as="geometry" />
        </mxCell>
        <mxCell id="kzmPSS7y724H0x-85dQ2-92" value="&lt;b&gt;Is Approve?&lt;/b&gt;" style="rhombus;whiteSpace=wrap;html=1;fillColor=#76608a;strokeColor=#432D57;fontColor=#ffffff;" parent="1" vertex="1">
          <mxGeometry x="900" y="640" width="100" height="70" as="geometry" />
        </mxCell>
        <mxCell id="kzmPSS7y724H0x-85dQ2-95" value="&lt;b&gt;YES&lt;/b&gt;" style="text;html=1;align=center;verticalAlign=middle;whiteSpace=wrap;rounded=0;" parent="1" vertex="1">
          <mxGeometry x="820" y="650" width="60" height="30" as="geometry" />
        </mxCell>
        <mxCell id="kzmPSS7y724H0x-85dQ2-96" value="&lt;b&gt;Rejection&lt;/b&gt;&lt;div&gt;&lt;b&gt;Notification&lt;/b&gt;&lt;/div&gt;" style="rounded=0;whiteSpace=wrap;html=1;fillColor=#d5e8d4;strokeColor=#82b366;align=center;" parent="1" vertex="1">
          <mxGeometry x="900" y="730" width="100" height="40" as="geometry" />
        </mxCell>
        <mxCell id="kzmPSS7y724H0x-85dQ2-98" value="&lt;b&gt;End&lt;/b&gt;" style="ellipse;whiteSpace=wrap;html=1;fillColor=#fff2cc;strokeColor=#d6b656;" parent="1" vertex="1">
          <mxGeometry x="780" y="780" width="90" height="41" as="geometry" />
        </mxCell>
        <mxCell id="kzmPSS7y724H0x-85dQ2-99" style="edgeStyle=orthogonalEdgeStyle;rounded=0;orthogonalLoop=1;jettySize=auto;html=1;exitX=0.5;exitY=1;exitDx=0;exitDy=0;entryX=1;entryY=0.652;entryDx=0;entryDy=0;entryPerimeter=0;" parent="1" source="kzmPSS7y724H0x-85dQ2-96" target="kzmPSS7y724H0x-85dQ2-98" edge="1">
          <mxGeometry relative="1" as="geometry" />
        </mxCell>
        <mxCell id="kzmPSS7y724H0x-85dQ2-101" style="edgeStyle=orthogonalEdgeStyle;rounded=0;orthogonalLoop=1;jettySize=auto;html=1;" parent="1" source="kzmPSS7y724H0x-85dQ2-100" target="kzmPSS7y724H0x-85dQ2-98" edge="1">
          <mxGeometry relative="1" as="geometry">
            <Array as="points">
              <mxPoint x="74" y="807" />
            </Array>
          </mxGeometry>
        </mxCell>
        <mxCell id="lNBYCz2GFePEUyN5MFj3-2" value="&lt;b&gt;NO&lt;/b&gt;" style="edgeLabel;html=1;align=center;verticalAlign=middle;resizable=0;points=[];" parent="kzmPSS7y724H0x-85dQ2-101" vertex="1" connectable="0">
          <mxGeometry x="0.0304" y="-3" relative="1" as="geometry">
            <mxPoint x="1" y="-5" as="offset" />
          </mxGeometry>
        </mxCell>
        <mxCell id="lNBYCz2GFePEUyN5MFj3-6" style="edgeStyle=orthogonalEdgeStyle;rounded=0;orthogonalLoop=1;jettySize=auto;html=1;entryX=0.75;entryY=0;entryDx=0;entryDy=0;" parent="1" source="kzmPSS7y724H0x-85dQ2-100" target="lNBYCz2GFePEUyN5MFj3-3" edge="1">
          <mxGeometry relative="1" as="geometry" />
        </mxCell>
        <mxCell id="lNBYCz2GFePEUyN5MFj3-7" value="&lt;b&gt;YES&lt;/b&gt;" style="edgeLabel;html=1;align=center;verticalAlign=middle;resizable=0;points=[];" parent="lNBYCz2GFePEUyN5MFj3-6" vertex="1" connectable="0">
          <mxGeometry x="-0.2788" y="2" relative="1" as="geometry">
            <mxPoint as="offset" />
          </mxGeometry>
        </mxCell>
        <mxCell id="kzmPSS7y724H0x-85dQ2-100" value="&lt;b&gt;Start&lt;/b&gt;&lt;div&gt;&lt;b&gt;contest?&lt;/b&gt;&lt;/div&gt;" style="rhombus;whiteSpace=wrap;html=1;fillColor=#76608a;strokeColor=#432D57;fontColor=#ffffff;" parent="1" vertex="1">
          <mxGeometry x="28" y="672" width="90" height="80" as="geometry" />
        </mxCell>
        <mxCell id="kzmPSS7y724H0x-85dQ2-109" style="edgeStyle=orthogonalEdgeStyle;rounded=0;orthogonalLoop=1;jettySize=auto;html=1;exitX=1;exitY=0.5;exitDx=0;exitDy=0;entryX=0;entryY=0.5;entryDx=0;entryDy=0;" parent="1" source="kzmPSS7y724H0x-85dQ2-104" target="kzmPSS7y724H0x-85dQ2-108" edge="1">
          <mxGeometry relative="1" as="geometry" />
        </mxCell>
        <mxCell id="kzmPSS7y724H0x-85dQ2-104" value="&lt;b&gt;Show problems&lt;/b&gt;" style="rounded=0;whiteSpace=wrap;html=1;fillColor=#d5e8d4;strokeColor=#82b366;" parent="1" vertex="1">
          <mxGeometry x="256" y="736" width="100" height="40" as="geometry" />
        </mxCell>
        <mxCell id="kzmPSS7y724H0x-85dQ2-111" style="edgeStyle=orthogonalEdgeStyle;rounded=0;orthogonalLoop=1;jettySize=auto;html=1;exitX=1;exitY=0.5;exitDx=0;exitDy=0;entryX=0;entryY=0.5;entryDx=0;entryDy=0;" parent="1" source="kzmPSS7y724H0x-85dQ2-108" target="kzmPSS7y724H0x-85dQ2-110" edge="1">
          <mxGeometry relative="1" as="geometry" />
        </mxCell>
        <mxCell id="kzmPSS7y724H0x-85dQ2-108" value="&lt;b&gt;Submit&amp;nbsp;&lt;/b&gt;&lt;div&gt;&lt;b&gt;solutions&lt;/b&gt;&lt;/div&gt;" style="shape=parallelogram;perimeter=parallelogramPerimeter;whiteSpace=wrap;html=1;fixedSize=1;fillColor=#dae8fc;strokeColor=#6c8ebf;" parent="1" vertex="1">
          <mxGeometry x="408" y="736" width="120" height="40" as="geometry" />
        </mxCell>
        <mxCell id="kzmPSS7y724H0x-85dQ2-112" style="edgeStyle=orthogonalEdgeStyle;rounded=0;orthogonalLoop=1;jettySize=auto;html=1;exitX=1;exitY=0.5;exitDx=0;exitDy=0;entryX=0.5;entryY=0;entryDx=0;entryDy=0;" parent="1" source="kzmPSS7y724H0x-85dQ2-110" target="kzmPSS7y724H0x-85dQ2-98" edge="1">
          <mxGeometry relative="1" as="geometry" />
        </mxCell>
        <mxCell id="kzmPSS7y724H0x-85dQ2-114" style="edgeStyle=orthogonalEdgeStyle;rounded=0;orthogonalLoop=1;jettySize=auto;html=1;exitX=0.5;exitY=0;exitDx=0;exitDy=0;entryX=0.5;entryY=0;entryDx=0;entryDy=0;" parent="1" source="kzmPSS7y724H0x-85dQ2-110" target="kzmPSS7y724H0x-85dQ2-104" edge="1">
          <mxGeometry relative="1" as="geometry" />
        </mxCell>
        <mxCell id="Kl6TvzACAwBHcxcpjMfl-1" value="&lt;b&gt;NO&lt;/b&gt;" style="edgeLabel;html=1;align=center;verticalAlign=middle;resizable=0;points=[];" parent="kzmPSS7y724H0x-85dQ2-114" vertex="1" connectable="0">
          <mxGeometry x="-0.2042" y="1" relative="1" as="geometry">
            <mxPoint as="offset" />
          </mxGeometry>
        </mxCell>
        <mxCell id="kzmPSS7y724H0x-85dQ2-110" value="&lt;b&gt;End&lt;/b&gt;&lt;div&gt;&lt;b&gt;contest?&lt;/b&gt;&lt;/div&gt;" style="rhombus;whiteSpace=wrap;html=1;fillColor=#76608a;strokeColor=#432D57;fontColor=#ffffff;" parent="1" vertex="1">
          <mxGeometry x="588" y="716" width="90" height="80" as="geometry" />
        </mxCell>
        <mxCell id="kzmPSS7y724H0x-85dQ2-113" value="&lt;b&gt;YES&lt;/b&gt;" style="text;html=1;align=center;verticalAlign=middle;whiteSpace=wrap;rounded=0;" parent="1" vertex="1">
          <mxGeometry x="720" y="730" width="60" height="30" as="geometry" />
        </mxCell>
        <mxCell id="k8kWBdQIVT9HjxaWmpgL-3" style="edgeStyle=orthogonalEdgeStyle;rounded=0;orthogonalLoop=1;jettySize=auto;html=1;entryX=0;entryY=0.5;entryDx=0;entryDy=0;" parent="1" source="k8kWBdQIVT9HjxaWmpgL-1" target="kzmPSS7y724H0x-85dQ2-26" edge="1">
          <mxGeometry relative="1" as="geometry" />
        </mxCell>
        <mxCell id="k8kWBdQIVT9HjxaWmpgL-4" value="&lt;b&gt;NO&lt;/b&gt;" style="edgeLabel;html=1;align=center;verticalAlign=middle;resizable=0;points=[];" parent="k8kWBdQIVT9HjxaWmpgL-3" vertex="1" connectable="0">
          <mxGeometry x="0.1304" y="-3" relative="1" as="geometry">
            <mxPoint as="offset" />
          </mxGeometry>
        </mxCell>
        <mxCell id="lNBYCz2GFePEUyN5MFj3-11" style="edgeStyle=orthogonalEdgeStyle;rounded=0;orthogonalLoop=1;jettySize=auto;html=1;entryX=0;entryY=0.5;entryDx=0;entryDy=0;" parent="1" source="k8kWBdQIVT9HjxaWmpgL-1" target="kzmPSS7y724H0x-85dQ2-48" edge="1">
          <mxGeometry relative="1" as="geometry">
            <mxPoint x="46" y="657" as="targetPoint" />
            <Array as="points">
              <mxPoint x="28" y="485" />
              <mxPoint x="28" y="648" />
            </Array>
          </mxGeometry>
        </mxCell>
        <mxCell id="lNBYCz2GFePEUyN5MFj3-12" value="&lt;b&gt;YES&lt;/b&gt;" style="edgeLabel;html=1;align=center;verticalAlign=middle;resizable=0;points=[];" parent="lNBYCz2GFePEUyN5MFj3-11" vertex="1" connectable="0">
          <mxGeometry x="-0.1671" relative="1" as="geometry">
            <mxPoint as="offset" />
          </mxGeometry>
        </mxCell>
        <mxCell id="k8kWBdQIVT9HjxaWmpgL-1" value="&lt;b&gt;Already&lt;/b&gt;&lt;div&gt;&lt;b&gt;Registered?&lt;/b&gt;&lt;/div&gt;" style="rhombus;whiteSpace=wrap;html=1;fillColor=#76608a;strokeColor=#432D57;fontColor=#ffffff;" parent="1" vertex="1">
          <mxGeometry x="133" y="458" width="117" height="54" as="geometry" />
        </mxCell>
        <mxCell id="lNBYCz2GFePEUyN5MFj3-1" value="&lt;b&gt;NO&lt;/b&gt;" style="text;html=1;align=center;verticalAlign=middle;whiteSpace=wrap;rounded=0;" parent="1" vertex="1">
          <mxGeometry x="942" y="705" width="60" height="30" as="geometry" />
        </mxCell>
        <mxCell id="lNBYCz2GFePEUyN5MFj3-4" style="edgeStyle=orthogonalEdgeStyle;rounded=0;orthogonalLoop=1;jettySize=auto;html=1;entryX=0;entryY=0.5;entryDx=0;entryDy=0;" parent="1" source="lNBYCz2GFePEUyN5MFj3-3" target="kzmPSS7y724H0x-85dQ2-104" edge="1">
          <mxGeometry relative="1" as="geometry" />
        </mxCell>
        <mxCell id="lNBYCz2GFePEUyN5MFj3-3" value="&lt;b&gt;Notification&lt;/b&gt;" style="rounded=0;whiteSpace=wrap;html=1;fillColor=#d5e8d4;strokeColor=#82b366;" parent="1" vertex="1">
          <mxGeometry x="125" y="736" width="94" height="40" as="geometry" />
        </mxCell>
        <mxCell id="lNBYCz2GFePEUyN5MFj3-14" value="" style="endArrow=classic;html=1;rounded=0;exitX=0;exitY=1;exitDx=0;exitDy=0;entryX=1;entryY=0;entryDx=0;entryDy=0;" parent="1" source="kzmPSS7y724H0x-85dQ2-48" target="kzmPSS7y724H0x-85dQ2-100" edge="1">
          <mxGeometry width="50" height="50" relative="1" as="geometry">
            <mxPoint x="7" y="660" as="sourcePoint" />
            <mxPoint x="57" y="610" as="targetPoint" />
          </mxGeometry>
        </mxCell>
        <mxCell id="saFpCEw48rZVz8mpHkZx-2" value="" style="ellipse;whiteSpace=wrap;html=1;aspect=fixed;fillColor=#f8cecc;strokeColor=#b85450;" vertex="1" parent="1">
          <mxGeometry x="674" y="594" width="16" height="16" as="geometry" />
        </mxCell>
        <mxCell id="saFpCEw48rZVz8mpHkZx-7" value="&lt;b&gt;YES&lt;/b&gt;" style="text;html=1;align=center;verticalAlign=middle;whiteSpace=wrap;rounded=0;" vertex="1" parent="1">
          <mxGeometry x="935" y="373" width="60" height="30" as="geometry" />
        </mxCell>
        <mxCell id="saFpCEw48rZVz8mpHkZx-8" style="edgeStyle=orthogonalEdgeStyle;rounded=0;orthogonalLoop=1;jettySize=auto;html=1;entryX=0.733;entryY=0.083;entryDx=0;entryDy=0;entryPerimeter=0;" edge="1" parent="1" source="saFpCEw48rZVz8mpHkZx-2" target="kzmPSS7y724H0x-85dQ2-98">
          <mxGeometry relative="1" as="geometry">
            <Array as="points">
              <mxPoint x="682" y="704" />
              <mxPoint x="846" y="704" />
            </Array>
          </mxGeometry>
        </mxCell>
      </root>
    </mxGraphModel>
  </diagram>
</mxfile>
